<?xml version="1.0" encoding="UTF-8"?>
<svg xmlns="http://www.w3.org/2000/svg" xmlns:xlink="http://www.w3.org/1999/xlink" width="1366pt" height="384.882pt" viewBox="0 0 1366 384.882" version="1.2">
<g id="surface1">
<path style=" stroke:none;fill-rule:nonzero;fill:rgb(47.842407%,7.058716%,83.137512%);fill-opacity:1;" d="M 112.265625 153.894531 L 112.265625 255.585938 L 86.386719 255.585938 L 86.386719 113.78125 L 111.527344 113.78125 L 155.339844 169.792969 L 200.261719 113.964844 L 224.480469 113.964844 L 224.480469 255.585938 L 198.597656 255.585938 L 198.597656 153.339844 L 156.265625 204.917969 L 153.304688 204.917969 Z M 112.265625 153.894531 "/>
<path style=" stroke:none;fill-rule:nonzero;fill:rgb(47.842407%,7.058716%,83.137512%);fill-opacity:1;" d="M 322.183594 255.585938 L 294.824219 255.585938 L 294.824219 149.289062 L 317.929688 149.289062 L 320.332031 171.472656 C 326.988281 156.3125 340.667969 146.328125 361.003906 146.328125 C 389.84375 146.328125 405.742188 164.632812 405.742188 193.101562 L 405.742188 255.585938 L 378.382812 255.585938 L 378.382812 199.753906 C 378.382812 180.714844 371.726562 169.066406 352.128906 169.066406 C 331.609375 169.066406 322.183594 181.824219 322.183594 203.453125 Z M 322.183594 255.585938 "/>
<path style=" stroke:none;fill-rule:nonzero;fill:rgb(47.842407%,7.058716%,83.137512%);fill-opacity:1;" d="M 514.839844 202.898438 L 514.839844 201.789062 C 514.839844 181.269531 502.453125 168.515625 482.304688 168.515625 C 460.488281 168.515625 448.152344 180.898438 448.152344 201.789062 L 448.152344 203.082031 C 448.152344 224.898438 461.226562 235.433594 481.5625 235.433594 C 502.824219 235.433594 514.839844 223.417969 514.839844 202.898438 M 515.023438 234.140625 C 508.367188 248.929688 494.503906 258.171875 473.429688 258.171875 C 443.480469 258.171875 422.035156 240.425781 422.035156 203.082031 L 422.035156 201.605469 C 422.035156 166.109375 442.925781 146.515625 474.351562 146.515625 C 493.023438 146.515625 506.519531 154.09375 513.914062 167.21875 L 513.914062 113.980469 L 540.351562 113.980469 L 540.351562 255.585938 L 517.425781 255.585938 Z M 515.023438 234.140625 "/>
<path style=" stroke:none;fill-rule:nonzero;fill:rgb(47.842407%,7.058716%,83.137512%);fill-opacity:1;" d="M 600.871094 255.585938 L 552.804688 149.289062 L 581.832031 149.289062 L 613.8125 225.636719 L 646.902344 149.289062 L 676.296875 149.289062 L 625.828125 255.585938 Z M 600.871094 255.585938 "/>
<path style=" stroke:none;fill-rule:nonzero;fill:rgb(47.842407%,7.058716%,83.137512%);fill-opacity:1;" d="M 808.566406 113.980469 L 835.738281 113.980469 L 835.738281 255.585938 L 808.566406 255.585938 Z M 808.566406 113.980469 "/>
<path style=" stroke:none;fill-rule:nonzero;fill:rgb(47.842407%,7.058716%,83.137512%);fill-opacity:1;" d="M 857.140625 113.980469 L 884.316406 113.980469 L 884.316406 255.585938 L 857.140625 255.585938 Z M 857.140625 113.980469 "/>
<path style=" stroke:none;fill-rule:nonzero;fill:rgb(47.842407%,7.058716%,83.137512%);fill-opacity:1;" d="M 928.050781 191.992188 L 994.605469 191.992188 C 992.199219 175.90625 982.03125 167.40625 962.804688 167.40625 C 943.027344 167.40625 931.378906 176.464844 928.050781 191.992188 M 960.957031 258.726562 C 919.738281 258.726562 901.429688 237.285156 901.429688 204.746094 L 901.429688 203.082031 C 901.429688 170.175781 923.617188 146.328125 962.25 146.328125 C 1001.8125 146.328125 1021.410156 170.546875 1021.410156 201.050781 L 1021.410156 212.328125 L 927.683594 212.328125 C 930.269531 228.410156 941.546875 236.914062 962.4375 236.914062 C 977.78125 236.914062 986.285156 232.476562 990.535156 224.160156 L 1020.113281 224.160156 C 1011.609375 247.453125 991.460938 258.726562 960.957031 258.726562 "/>
<path style=" stroke:none;fill-rule:nonzero;fill:rgb(47.842407%,7.058716%,83.137512%);fill-opacity:1;" d="M 1029.167969 298.472656 L 1029.167969 274.996094 L 1042.664062 274.996094 C 1058.5625 274.996094 1063.367188 270.929688 1070.394531 257.25 L 1072.980469 251.703125 L 1023.4375 149.289062 L 1052.644531 149.289062 L 1085.367188 220.460938 L 1086.476562 224.714844 L 1087.769531 220.644531 L 1120.121094 149.289062 L 1148.960938 149.289062 L 1095.164062 261.871094 C 1079.636719 293.851562 1072.796875 298.472656 1041.925781 298.472656 Z M 1029.167969 298.472656 "/>
<path style=" stroke:none;fill-rule:nonzero;fill:rgb(47.842407%,7.058716%,83.137512%);fill-opacity:1;" d="M 260.050781 150.960938 C 254.457031 150.960938 249.761719 150.421875 245.875 149.222656 L 245.875 255.585938 L 273.605469 255.585938 L 273.605469 149.125 C 269.765625 150.367188 265.25 150.960938 260.050781 150.960938 "/>
<path style=" stroke:none;fill-rule:nonzero;fill:rgb(47.842407%,7.058716%,83.137512%);fill-opacity:1;" d="M 260.199219 139.585938 C 269.988281 139.585938 275.273438 136.011719 275.273438 125.289062 C 275.273438 115.03125 270.144531 110.835938 260.199219 110.835938 L 260.246094 110.835938 C 250.300781 110.835938 245.171875 115.03125 245.171875 125.289062 C 245.171875 136.011719 250.457031 139.585938 260.246094 139.585938 Z M 260.199219 139.585938 "/>
<path style=" stroke:none;fill-rule:nonzero;fill:rgb(47.842407%,7.058716%,83.137512%);fill-opacity:1;" d="M 1147.730469 113.601562 C 1152.554688 114 1157.375 114.621094 1162.167969 115.316406 C 1169.078125 116.316406 1175.953125 117.574219 1182.734375 119.238281 C 1189.152344 120.816406 1195.910156 122.511719 1201.726562 125.738281 C 1211.871094 131.363281 1213.921875 143.117188 1213.921875 153.824219 L 1213.921875 175.582031 C 1167.699219 151.914062 1147.730469 113.601562 1147.730469 113.601562 "/>
<path style=" stroke:none;fill-rule:nonzero;fill:rgb(47.842407%,7.058716%,83.137512%);fill-opacity:1;" d="M 1288.382812 113.601562 C 1283.554688 114 1278.734375 114.621094 1273.941406 115.316406 C 1267.035156 116.316406 1260.15625 117.574219 1253.375 119.238281 C 1246.957031 120.816406 1240.199219 122.511719 1234.382812 125.738281 C 1224.238281 131.363281 1222.1875 143.117188 1222.1875 153.824219 L 1222.1875 175.582031 C 1268.410156 151.914062 1288.382812 113.601562 1288.382812 113.601562 "/>
<path style=" stroke:none;fill-rule:nonzero;fill:rgb(47.842407%,7.058716%,83.137512%);fill-opacity:1;" d="M 762.75 208.582031 C 762.75 208.582031 751.167969 209.457031 739.148438 210.9375 C 723.253906 212.601562 716.226562 213.894531 711.234375 216.851562 C 706.613281 219.625 703.945312 222.839844 703.945312 227.644531 L 703.945312 227.828125 C 703.945312 235.59375 711.867188 239.863281 723.253906 239.777344 C 746.914062 239.59375 762.75 224.109375 762.75 208.582031 M 764.105469 234.042969 C 756.34375 249.019531 739.890625 259.925781 714.5625 259.925781 C 689.050781 259.925781 675.558594 249.203125 675.558594 230.71875 C 675.558594 218.703125 680.734375 209.640625 690.53125 204.28125 C 700.328125 198.734375 708.96875 197.371094 734.609375 194.265625 C 749.480469 192.464844 762.8125 191.664062 762.8125 191.664062 L 762.8125 182.097656 C 762.8125 173.964844 756.34375 167.863281 737.300781 167.863281 C 716.042969 167.863281 707.722656 174.886719 706.613281 187.828125 L 678.699219 187.828125 C 681.101562 162.132812 701.066406 147.527344 735.453125 147.527344 C 772.609375 147.527344 788.878906 159.914062 788.878906 187.273438 L 788.878906 256.785156 L 766.878906 256.785156 Z M 764.105469 234.042969 "/>
</g>
</svg>
